<svg width="168" height="40" viewBox="0 0 168 40" fill="none" xmlns="http://www.w3.org/2000/svg">
<g clip-path="url(#clip0_13898_8402)">
<path d="M43.5449 28.3572H46.6595L47.3838 18.7725C47.4562 17.6378 47.408 16.0927 47.408 16.0927H47.4562C47.4562 16.0927 47.9874 17.7827 48.3978 18.7725L51.1501 25.4118H53.8782L56.6547 18.7725C57.0651 17.7827 57.5721 16.1168 57.5721 16.1168H57.6204C57.6204 16.1168 57.5721 17.6378 57.6445 18.7725L58.3688 28.3572H61.4591L60.083 11.2158H56.7512L53.3954 19.69C53.0091 20.704 52.5504 22.2008 52.5504 22.2008H52.5021C52.5021 22.2008 52.0192 20.704 51.633 19.69L48.2771 11.2158H44.9452L43.5449 28.3572ZM62.9541 22.2008C62.9541 25.7015 65.4891 28.647 69.5692 28.647C72.6354 28.647 74.5185 26.8845 74.5185 26.8845L73.3355 24.6875C73.3355 24.6875 71.7663 26.0395 69.7865 26.0395C67.9517 26.0395 66.2858 24.929 66.0927 22.7802H74.591C74.591 22.7802 74.6634 21.9594 74.6634 21.5972C74.6634 18.338 72.7561 15.7547 69.2071 15.7547C65.5374 15.7547 62.9541 18.4104 62.9541 22.2008ZM66.1892 20.6798C66.479 19.0864 67.5654 18.1207 69.1347 18.1207C70.4867 18.1207 71.5248 19.014 71.5731 20.6798H66.1892ZM76.7569 23.8425C76.7569 27.971 80.161 28.478 81.8751 28.478C82.4546 28.478 82.8167 28.4055 82.8167 28.4055V25.7257C82.8167 25.7257 82.5994 25.774 82.2614 25.774C81.4164 25.774 79.823 25.4842 79.823 23.4562V18.676H82.6236V16.2375H79.823V12.6885H76.8293V16.2375H75.1634V18.676H76.7569V23.8425ZM84.3605 28.3572H87.4266V23.4804C87.4266 22.7561 87.499 22.0801 87.6922 21.4765C88.2716 19.6417 89.7443 18.8932 91.048 18.8932C91.4585 18.8932 91.7723 18.9415 91.7723 18.9415V15.9237C91.7723 15.9237 91.5067 15.8754 91.217 15.8754C89.3339 15.8754 87.8612 17.2757 87.3059 19.0381H87.2576C87.2576 19.0381 87.3059 18.6277 87.3059 18.169V16.0444H84.3605V28.3572ZM91.9557 22.2008C91.9557 25.9912 94.9736 28.647 98.7399 28.647C102.482 28.647 105.5 25.9912 105.5 22.2008C105.5 18.4345 102.482 15.7547 98.7157 15.7547C94.9736 15.7547 91.9557 18.4345 91.9557 22.2008ZM95.0701 22.2008C95.0701 19.9314 96.736 18.3621 98.7399 18.3621C100.72 18.3621 102.385 19.9314 102.385 22.2008C102.385 24.4944 100.72 26.0395 98.7399 26.0395C96.736 26.0395 95.0701 24.4944 95.0701 22.2008ZM106.997 28.3572H110.063V22.7078C110.063 22.1284 110.111 21.5731 110.28 21.0661C110.739 19.5934 111.946 18.5552 113.588 18.5552C115.157 18.5552 115.543 19.5692 115.543 21.0661V28.3572H118.585V20.4384C118.585 17.1791 117.04 15.7547 114.312 15.7547C111.825 15.7547 110.473 17.2757 109.942 18.3138H109.894C109.894 18.3138 109.942 17.9275 109.942 17.4688V16.0444H106.997V28.3572ZM120.837 13.944H123.879V11.2158H120.837V13.944ZM120.837 28.3572H123.903V16.0444H120.837V28.3572ZM125.414 22.2008C125.414 25.774 128.022 28.647 132.102 28.647C135.41 28.647 137.172 26.6431 137.172 26.6431L135.989 24.4702C135.989 24.4702 134.444 26.0395 132.368 26.0395C130.026 26.0395 128.529 24.253 128.529 22.1767C128.529 20.0762 130.002 18.3621 132.271 18.3621C134.202 18.3621 135.482 19.69 135.482 19.69L136.834 17.5895C136.834 17.5895 135.313 15.7547 132.102 15.7547C128.022 15.7547 125.414 18.7001 125.414 22.2008Z" fill="white"/>
<path d="M28.3734 8.28926L35.4345 30.2748C35.8195 31.4736 34.9253 32.6998 33.6663 32.6998H28.474C27.6649 32.6998 26.9489 32.1759 26.704 31.4048L19.7232 9.41917C19.3429 8.22163 20.2368 7 21.4932 7H26.6052C27.4121 7 28.1267 7.52102 28.3734 8.28926Z" fill="#50CD89"/>
<g filter="url(#filter0_i_13898_8402)">
<path d="M21.6116 24.55L16.6326 8.60141C16.3352 7.64874 15.453 7 14.455 7C13.2402 7 12.2385 7.95195 12.1767 9.16515L11.5693 21.0861C11.5477 21.5094 11.5988 21.9334 11.7203 22.3396L14.4231 31.375C14.6583 32.1612 15.3817 32.6998 16.2024 32.6998H18.7149C19.5232 32.6998 20.2387 32.177 20.4843 31.4068L21.6015 27.9028C21.9491 26.8127 21.9526 25.6421 21.6116 24.55Z" fill="#F4F4F4"/>
<path d="M21.6116 24.55L16.6326 8.60141C16.3352 7.64874 15.453 7 14.455 7C13.2402 7 12.2385 7.95195 12.1767 9.16515L11.5693 21.0861C11.5477 21.5094 11.5988 21.9334 11.7203 22.3396L14.4231 31.375C14.6583 32.1612 15.3817 32.6998 16.2024 32.6998H18.7149C19.5232 32.6998 20.2387 32.177 20.4843 31.4068L21.6015 27.9028C21.9491 26.8127 21.9526 25.6421 21.6116 24.55Z" fill="url(#paint0_linear_13898_8402)"/>
</g>
<path d="M9.43345 7H14.5474C15.7996 7 16.693 8.21406 16.3204 9.40962L9.4114 31.5828C9.1696 32.3588 8.45121 32.8875 7.63834 32.8875H2.52445C1.27218 32.8875 0.378854 31.6734 0.751386 30.4778L7.66039 8.30467C7.90224 7.52862 8.62063 7 9.43345 7Z" fill="#50CD89"/>
</g>
<defs>
<filter id="filter0_i_13898_8402" x="7.56445" y="7" width="14.3008" height="28.7002" filterUnits="userSpaceOnUse" color-interpolation-filters="sRGB">
<feFlood flood-opacity="0" result="BackgroundImageFix"/>
<feBlend mode="normal" in="SourceGraphic" in2="BackgroundImageFix" result="shape"/>
<feColorMatrix in="SourceAlpha" type="matrix" values="0 0 0 0 0 0 0 0 0 0 0 0 0 0 0 0 0 0 127 0" result="hardAlpha"/>
<feOffset dx="-4" dy="3"/>
<feGaussianBlur stdDeviation="2"/>
<feComposite in2="hardAlpha" operator="arithmetic" k2="-1" k3="1"/>
<feColorMatrix type="matrix" values="0 0 0 0 0.904167 0 0 0 0 0.892865 0 0 0 0 0.892865 0 0 0 0.4 0"/>
<feBlend mode="normal" in2="shape" result="effect1_innerShadow_13898_8402"/>
</filter>
<linearGradient id="paint0_linear_13898_8402" x1="13.4642" y1="18.375" x2="22.7498" y2="21.1607" gradientUnits="userSpaceOnUse">
<stop stop-opacity="0.2"/>
<stop offset="0.911458" stop-color="white" stop-opacity="0"/>
</linearGradient>
<clipPath id="clip0_13898_8402">
<rect width="137.893" height="26" fill="white" transform="translate(0 7)"/>
</clipPath>
</defs>
</svg>